<?xml version="1.0" encoding="UTF-8"?>
<svg id="Layer_1" data-name="Layer 1" xmlns="http://www.w3.org/2000/svg" viewBox="0 0 236.24 258.75">
  <defs>
    <style>
      .cls-1, .cls-2 {
        fill: #1c1629;
      }

      .cls-2, .cls-3 {
        fill-rule: evenodd;
      }

      .cls-3 {
        fill: #fff;
      }
    </style>
  </defs>
  <g>
    <path class="cls-3" d="m13.65,153.16c-2.68-33.17,12.92-104.26,102.34-108.13,87.75-3.8,119.95,73.25,114.82,117.88-4.95,43.01-39.28,92.07-109.93,92.71-70.65.64-103.31-53.86-107.23-102.46Z"/>
    <path class="cls-1" d="m119.65,258.75c-69.5,0-104.87-52.76-109.12-105.34h0c-1.75-21.72,3.93-53.49,25.16-77.53,18.59-21.05,45.56-32.48,80.16-33.98,35.58-1.54,65.86,10,87.63,33.38,24.94,26.78,33.25,63.49,30.44,87.98-2.8,24.29-13.89,47.06-31.24,64.12-20.57,20.22-48.85,31.07-81.77,31.37-.42,0-.84,0-1.25,0ZM16.76,152.91c4.01,49.7,37.39,99.59,102.91,99.59.39,0,.78,0,1.18,0,66.74-.61,101.75-45.61,106.86-89.94,2.66-23.07-5.22-57.69-28.8-83.01-20.48-21.99-49.13-32.83-82.78-31.39-32.84,1.42-58.33,12.15-75.75,31.87-19.93,22.56-25.26,52.44-23.62,72.88h0Z"/>
  </g>
  <path class="cls-2" d="m66.42,142.71c-.36-6.07,1.73-19.09,13.75-19.8,11.79-.7,16.11,13.41,15.42,21.59-.67,7.88-5.28,16.86-14.77,16.98-9.49.12-13.88-9.86-14.4-18.76Z"/>
  <path class="cls-2" d="m149.96,138.75c-.36-6.07,1.73-19.09,13.75-19.8,11.78-.7,16.11,13.41,15.42,21.59-.67,7.88-5.28,16.86-14.77,16.98-9.49.12-13.87-9.86-14.4-18.76Z"/>
  <g>
    <path class="cls-2" d="m67.81,183.42s14.91,7.11,21.35-3.75c7.77-13.1,22.05-19.63,33.15-10.05,11.09,9.58,3.99,26.43-6.33,33.03-10.32,6.59-47.58,3.04-48.18-19.23Z"/>
    <path class="cls-2" d="m182.85,174.15s-13.69,9.25-21.67-.54c-9.63-11.8-24.72-16.14-34.27-5.02-9.55,11.12-.03,26.73,11.16,31.72,11.18,4.99,47.5-4.06,44.79-26.16Z"/>
  </g>
  <g>
    <path class="cls-2" d="m26.31,80.32s14.53-27.83,21.89-51.61C55.57,4.93,69.06.42,83.56,4.88c14.5,4.46,19.73,16.91,41.85,15.01,22.12-1.9,34.1-26.34,53.79-18.27,19.69,8.08,29.53,79.37,29.53,79.37,0,0-128.34,25.2-182.41-.68Z"/>
    <path class="cls-3" d="m26.31,80.32s8.17-15.65,15.36-33.51c29.28,17.95,108.07,8.21,160.09-.81,5.66,18.9,6.95,35,6.95,35,0,0-128.34,25.2-182.41-.68Z"/>
    <path class="cls-2" d="m26.31,80.32s8.17-15.65,15.36-33.51c29.28,17.95,108.07,8.21,160.09-.81,5.66,18.9,6.95,35,6.95,35,0,0-128.34,25.2-182.41-.68Zm8.94-3.29c2.48-5.05,6.11-12.69,9.77-21.28,12.59,5.22,30.46,7.52,50.64,7.64,32.31.2,70.73-4.84,101.43-9.98,2.41,9.13,3.75,17.17,4.46,22.29-13.86,2.44-50.14,8.24-87.89,9.53-28.37.97-57.63-.48-78.4-8.2h0Z"/>
    <path class="cls-2" d="m16.86,118.92s-21.85-4.7-15.8-25.28c4.83-16.43,19.54-22.45,39.97-23.39,48.49-2.23,136.16,5.25,160.53.5,33.78-6.57,46.85,27.94,21.16,40.67,0,0-3.97-11.56-8.69-17.12,0,0-122.88,18.99-187.93.78,0,0-8.04,13.6-9.25,23.83Z"/>
  </g>
</svg>