<?xml version="1.0" encoding="UTF-8"?>
<svg id="Layer_1" data-name="Layer 1" xmlns="http://www.w3.org/2000/svg" viewBox="0 0 125.41 140.02">
  <defs>
    <style>
      .cls-1 {
        fill: #010101;
      }
    </style>
  </defs>
  <path class="cls-1" d="m42.6,1.5c-.8.9-2.4,4.4-3.4,7.8-1.1,3.4-10.3,32.4-20.6,64.3C8.4,105.6,0,133.1,0,134.8c0,2.1.7,3.5,1.9,4.2,2.9,1.5,27.3,1.3,29.4-.3,1-.7,3.5-6.6,5.5-13.2l3.8-12,18.7-.3c21.7-.3,18.7-2.2,23.7,14.5,2.1,6.9,3.7,10.6,5,11.3,2.4,1.3,32.5,1.3,34.9,0,1-.5,2.2-1.7,2.5-2.6.4-.9-7.4-27.5-18-61.3-10.3-32.8-19.5-62.4-20.6-65.8C83.9-.3,84.7,0,63,0,47.4,0,43.9.3,42.6,1.5Zm22,65.5c2.7,8.6,3.2,11.6,2.3,12.6-1.5,1.8-13.2,1.9-14.7.1-.7-.8,0-4.6,2.3-12.4,1.8-6.2,3.6-11.7,4-12.3,1.3-2.1,2.7.6,6.1,12Z"/>
</svg>