<?xml version="1.0" encoding="UTF-8"?>
<svg id="Layer_1" data-name="Layer 1" xmlns="http://www.w3.org/2000/svg" viewBox="0 0 117.73 140.76">
  <defs>
    <style>
      .cls-1 {
        fill: #010101;
      }
    </style>
  </defs>
  <path class="cls-1" d="m5.61.54C-.29,1.44-.19-.76.11,71.74c.3,64.9.3,66.3,2.3,67.7,1.7,1.3,7.8,1.5,41,1.2,36.4-.4,39.4-.5,45.2-2.5,12.3-4.1,20.6-11,25.3-21,7.2-15.3,4.1-31.5-8.2-43.4-3.2-3.1-5.8-6-5.8-6.5,0-.4,1.9-2.6,4.3-4.9,7.1-6.8,9.2-12.2,9.2-24,0-8.7-.3-10.7-2.7-15.7C105.21,10.84,93.51,2.94,78.61.94,71.31-.06,11.81-.36,5.61.54Zm65.4,34.2c3.2,3.2,3.8,7.9,1.8,12.4-2,4.4-5.1,5.2-19.8,5.2h-13.6l-.3-8.9c-.2-4.9-.1-9.5.2-10.3.4-1,3.8-1.3,14.6-1.3h14.2l2.9,2.9Zm-.4,51.5c4.5,2.3,6.3,5.3,6.3,10.7,0,9.4-6,12.1-25.2,11.7l-12.3-.3-.3-11.4c-.2-8.5.1-11.7,1-12.3,2.2-1.6,26.9-.3,30.5,1.6Z"/>
</svg>