<?xml version="1.0" encoding="UTF-8"?>
<svg id="Layer_1" data-name="Layer 1" xmlns="http://www.w3.org/2000/svg" viewBox="0 0 1026.85 40.1">
  <path d="m89.64,1.73c-3.24.7-5.02,1.6-7.09,3.69-3.54,3.54-5.16,8.83-4.53,14.73.5,4.8,1.64,7.45,4.39,10.16,2.81,2.81,5.58,3.94,9.73,3.94,2.39,0,4.95-.59,6.69-1.51,1.8-.97,3.81-2.99,4.73-4.73,1.4-2.7,1.94-5.52,1.17-6.15-.5-.41-6.69-.83-7.39-.52-.38.18-.63.61-.88,1.55-.5,1.8-1.22,2.81-2.43,3.4-2.45,1.26-5.09-.05-5.97-2.9-.23-.68-.43-2.41-.5-4.01-.29-6.44,1.1-9.77,4.19-10.09,1.4-.14,2.27.2,3.15,1.22.61.68.77,1.13,1.28,3.85.2,1.06.81,1.19,4.37.95,1.8-.11,3.49-.25,3.78-.32.81-.2.99-1.01.63-2.88-1.35-6.94-5.79-10.56-12.86-10.49-1.1.02-2.23.07-2.48.11Z"/>
  <path d="m250.64,2.22c-3.49,1.04-6.15,3.36-7.84,6.8-1.64,3.31-1.85,4.37-1.85,9.23s.23,5.92,1.73,9.01c1.69,3.49,4.68,5.9,8.24,6.67,3.02.63,5.54.34,8.15-.97.92-.47,1.78-.86,1.89-.86.09,0,.29.36.45.79l.25.79,2.25.07c3.45.09,3.15.92,3.15-8.71,0-7.3-.05-8.15-.38-8.49-.32-.32-1.06-.38-4.95-.47-5.29-.11-7.7.05-8.17.54-.45.43-.5,5.63-.05,6.21.2.29.81.43,2.63.56,2.18.14,2.36.2,2.43.65.09.61-1.17,2.05-2.14,2.45-2.43,1.01-5.09-.34-6.19-3.17-1.17-2.95-.9-9.1.52-11.84,1.49-2.93,5.58-3.22,7.12-.5.27.47.61,1.33.74,1.91.43,1.67.47,1.69,4.14,1.22,1.73-.2,3.4-.54,3.69-.72.63-.43.65-1.35.02-3.26-.65-1.98-1.73-3.72-3.29-5.2-2.34-2.23-4.19-2.9-8.29-3.02-2.34-.07-3.2,0-4.28.32h0Z"/>
  <path d="m37.67,2.2c-1.33.2-1.31-.29-1.24,16.03.07,14.61.07,14.93.52,15.24.38.29,1.76.34,9.23.27,8.2-.09,8.87-.11,10.18-.56,2.77-.92,4.64-2.48,5.7-4.73,1.62-3.45.92-7.09-1.85-9.77-.72-.7-1.31-1.35-1.31-1.46,0-.09.43-.59.97-1.1,1.6-1.53,2.07-2.75,2.07-5.4,0-1.96-.07-2.41-.61-3.54-1.24-2.66-3.87-4.44-7.23-4.89-1.64-.23-15.04-.29-16.44-.09h0Zm14.73,7.7c.72.72.86,1.78.41,2.79-.45.99-1.15,1.17-4.46,1.17h-3.06l-.07-2c-.05-1.1-.02-2.14.05-2.32.09-.23.86-.29,3.29-.29h3.2l.65.65h0Zm-.09,11.6c1.01.52,1.42,1.19,1.42,2.41,0,2.12-1.35,2.72-5.67,2.63l-2.77-.07-.07-2.57c-.05-1.91.02-2.63.23-2.77.5-.36,6.06-.07,6.87.36h0Z"/>
  <path d="m121.95,2.33l-.56.29-.07,15.15c-.05,14.12-.02,15.22.34,15.6.38.43.72.43,7.16.36,5.52-.09,7-.18,8.11-.5,3.94-1.13,6.98-3.72,8.76-7.39,1.42-2.97,1.78-4.86,1.67-8.8-.09-2.75-.18-3.45-.72-5-.77-2.23-2.09-4.32-3.87-6.08-3.26-3.24-5.99-3.94-15.4-3.94-3.45,0-5,.09-5.4.29h0Zm12.41,7.48c4.62,1.64,5.74,11.03,1.8,14.97-1.24,1.24-2.41,1.62-4.64,1.53l-1.58-.07-.07-8.11c-.02-4.46,0-8.24.07-8.38.16-.43,3.2-.38,4.41.05Z"/>
  <path d="m9.59,1.27c-.18.2-.54.99-.77,1.76-.25.77-2.32,7.3-4.64,14.48C1.89,24.71,0,30.91,0,31.29c0,.47.16.79.43.95.65.34,6.15.29,6.62-.07.23-.16.79-1.49,1.24-2.97l.86-2.7,4.21-.07c4.89-.07,4.21-.5,5.34,3.26.47,1.55.83,2.39,1.13,2.54.54.29,7.32.29,7.86,0,.23-.11.5-.38.56-.59.09-.2-1.67-6.19-4.05-13.8-2.32-7.39-4.39-14.05-4.64-14.82-.65-2.16-.47-2.09-5.36-2.09-3.51,0-4.3.07-4.59.34h0Zm4.95,14.75c.61,1.94.72,2.61.52,2.84-.34.41-2.97.43-3.31.02-.16-.18,0-1.04.52-2.79.41-1.4.81-2.63.9-2.77.29-.47.61.14,1.37,2.7Z"/>
  <path d="m164.49,2.65c-.27.29-.32,2.99-.32,15.42,0,14.66.02,15.09.43,15.4.65.47,21.46.47,22.11,0,.38-.29.43-.61.43-3.38,0-2.61-.05-3.11-.41-3.45-.36-.36-1.06-.41-7.09-.52l-6.69-.11v-4.5l5.25-.11c4.89-.11,5.29-.14,5.58-.54.45-.63.45-5.72,0-6.35-.29-.41-.68-.43-5.45-.5-3.67-.05-5.2-.16-5.31-.34-.29-.45-.2-3.65.09-3.94.2-.2,2-.27,6.71-.27,5.2,0,6.53-.07,6.89-.32.38-.29.43-.61.43-3.24,0-2.14-.09-2.99-.32-3.26-.27-.34-1.33-.38-11.17-.38s-10.9.05-11.17.38h0Z"/>
  <path d="m203.89,2.65c-.27.29-.32,2.99-.32,15.42,0,14.66.02,15.09.43,15.4.63.45,7.3.45,7.93,0,.41-.29.43-.72.54-5.81l.11-5.47,5.13-.11c4.77-.11,5.18-.14,5.47-.54.23-.34.32-1.17.32-3.17,0-2.36-.05-2.79-.41-3.11-.36-.34-1.06-.38-5.16-.38-2.61,0-4.91-.07-5.11-.14-.54-.2-.54-4.71,0-4.91.2-.07,3.17-.14,6.6-.14,5.79,0,6.28-.02,6.62-.41.32-.34.38-.95.38-3.36,0-2.54-.05-2.97-.41-3.29-.38-.34-1.49-.38-11.12-.38s-10.74.05-11.01.38h0Z"/>
  <path d="m282.8,2.06c-1.22.23-1.19-.14-1.19,15.78v14.7l.56.56c.56.56.61.56,3.94.5,2.36-.05,3.45-.16,3.65-.36.23-.23.32-1.76.41-6.08l.11-5.79,3.74-.07c3.74-.05,3.76-.05,3.9.45.07.29.14,2.9.14,5.83,0,4.68.05,5.36.38,5.63.27.25,1.22.32,3.78.32s3.51-.07,3.78-.32c.36-.27.38-1.64.38-15.45s-.02-15.18-.38-15.45c-.52-.45-7.05-.45-7.57,0-.34.27-.38.92-.38,5.4,0,3.76-.07,5.22-.29,5.49-.25.36-.68.38-3.87.34l-3.6-.07-.11-5.52c-.07-3.04-.16-5.54-.18-5.56-.43-.43-5.54-.68-7.18-.36h0Z"/>
  <path d="m325.62,2.06c-1.06.27-1.01-.27-1.01,15.72,0,13.8.02,15.18.38,15.45.52.43,7.34.45,7.77.02.23-.23.32-3.29.36-14.86.05-8.02,0-14.88-.07-15.29-.09-.54-.29-.77-.83-.95-.68-.25-5.7-.32-6.6-.09h0Z"/>
  <path d="m356.7,2.06c-1.04.27-1.01,0-1.01,11.42,0,9.86-.05,10.9-.41,11.62-.61,1.22-1.15,1.4-3.81,1.24-2-.11-2.99,1.08-2.99,3.56,0,1.46.11,2.86.23,3.08.36.65,1.87.97,4.95.99,3.04.02,4.62-.27,6.33-1.13,1.46-.72,2.97-2.5,3.6-4.21.52-1.37.52-1.51.61-13.56.05-10.4.02-12.23-.27-12.61-.29-.41-.61-.45-3.56-.5-1.78-.02-3.42.02-3.67.09h0Z"/>
  <path d="m382.07,1.97c-1.04.25-1.01.02-1.01,15.72,0,12.5.05,14.95.32,15.33.29.38.63.43,3.94.43,2.66,0,3.67-.07,3.9-.29.2-.2.34-1.35.41-3.83l.11-3.54,1.31-1.85c1.49-2.12,1.67-2.27,2.07-1.85.16.18,1.33,2.59,2.61,5.38,1.26,2.79,2.5,5.27,2.72,5.52.38.43.7.45,4.37.45s3.99-.02,4.28-.43c.18-.27.25-.65.18-.9-.09-.27-2-4.46-4.28-9.34-2.27-4.86-4.14-9.03-4.14-9.23s1.49-2.54,3.29-5.2c4.37-6.48,4.39-6.46-.74-6.51-1.51-.02-2.99.07-3.31.2-.38.14-1.69,1.91-4.19,5.63-1.98,2.97-3.76,5.4-3.94,5.4-.29,0-.34-.77-.34-4.91,0-2.68-.07-5.11-.14-5.38-.09-.27-.43-.59-.81-.72-.68-.25-5.7-.29-6.6-.09h0Z"/>
  <path d="m425.15,2.06c-1.06.27-1.01-.27-1.01,15.72,0,13.8.02,15.18.38,15.45.52.45,18.6.56,19.43.14.56-.27.56-.34.63-3.42.09-4.26.59-3.94-6.26-3.94-4.68,0-5.38-.05-5.49-.36-.07-.2-.14-5.45-.14-11.69,0-10.25-.05-11.35-.38-11.62-.27-.23-1.22-.32-3.54-.36-1.76-.02-3.38.02-3.63.09Z"/>
  <path d="m461.4,2.06c-1.04.25-1.01.02-1.01,15.72,0,12.5.05,14.95.32,15.33.29.38.61.43,3.4.43s3.11-.05,3.4-.43c.25-.36.32-1.94.34-8.56,0-4.48.09-8.33.2-8.58.16-.41.2-.41.45.23.14.36.9,2.79,1.69,5.4,2.99,9.82,3.45,11.21,3.81,11.57.47.45,3.87.63,5.11.27.97-.29.7.34,3.13-7.57,2.27-7.39,3.22-10.25,3.38-10.25.36,0,.45,1.78.45,9.34,0,7.12.05,7.97.38,8.24.27.25,1.24.32,3.94.32,3.29,0,3.63-.05,3.92-.43.47-.65.47-30.02,0-30.67-.29-.41-.68-.43-5.13-.5-5.61-.09-6.6,0-6.98.7-.14.27-1.19,3.51-2.34,7.21-1.13,3.69-2.16,6.82-2.3,6.96-.36.36-.54-.11-2.61-7.23-1.08-3.63-2.05-6.78-2.16-7-.11-.2-.54-.45-.92-.54-.81-.16-9.75-.14-10.45.02h0Z"/>
  <path d="m513.75,2.08c-1.13.36-1.13.23-1.06,15.99l.05,14.73.56.45c.5.41.81.43,3.2.36,1.78-.05,2.72-.16,2.93-.36.23-.23.32-2.09.36-8.22.02-4.35.16-8.02.25-8.11.27-.27.65.34,4.57,7.16,4.75,8.29,5.18,8.96,5.81,9.3.41.2,1.42.27,3.45.23,2.57-.07,2.93-.11,3.22-.5.47-.65.47-30.02,0-30.67-.29-.38-.61-.43-3.15-.43-2,0-2.9.09-3.11.29-.23.23-.32,1.91-.41,6.98-.09,5.56-.16,6.69-.43,6.69-.24,0-1.86-2.6-4.86-7.81-1.85-3.17-3.49-5.85-3.69-5.94-.5-.23-6.98-.34-7.68-.14h0Z"/>
  <path d="m558.15,2.16c-4.71,1.08-8.2,4.68-9.75,10.04-.63,2.14-.86,6.91-.45,9.37,1.04,6.48,4.82,11.19,10.02,12.47,1.44.34,5.09.34,6.53-.02,1.69-.41,3.69-1.37,4.98-2.41,2.3-1.8,4.46-6.01,5.04-9.77.41-2.5.18-7.25-.45-9.41-.68-2.36-2.34-5.45-3.74-6.96-1.26-1.37-2.63-2.23-4.75-2.97-1.71-.61-5.47-.77-7.43-.34h0Zm5.29,7.72c.7.52,1.51,1.82,1.85,2.99.81,2.81.7,8.65-.25,11.15-.83,2.21-2.72,3.36-4.68,2.81-2.57-.68-3.69-3.38-3.69-8.78.02-4.57.88-7.21,2.75-8.31,1.04-.63,3.08-.56,4.03.14h0Z"/>
  <path d="m640.99,2.29c-4.1,1.08-6.98,3.83-8.78,8.33-2.12,5.36-1.67,12.56,1.1,17.29,1.08,1.82,3.42,4.12,5.04,4.95,1.89.95,3.02,1.22,5.61,1.37l2.23.14.38,1.15c1.17,3.45,3.69,4.86,8.02,4.53,2.5-.18,2.57-.27,2.57-3.67,0-2.59-.02-2.79-.5-3.11-.38-.27-.83-.32-1.98-.23-1.26.11-1.55.07-2.03-.32l-.54-.45,1.6-1.69c1.94-2.09,3.26-4.53,3.94-7.27.68-2.77.68-7.7-.02-10.34-.7-2.72-2.27-5.72-3.9-7.43-2.95-3.17-8.08-4.48-12.74-3.26h0Zm5.88,7.72c1.51,1.15,2.39,4.14,2.39,8.15,0,4.44-1.04,7.43-2.9,8.38-1.82.95-3.99.41-5.04-1.22s-1.37-3.22-1.37-7.05c0-5.36.86-7.86,3.04-8.76,1.01-.43,3.02-.18,3.9.5Z"/>
  <path d="m722.87.82c-3.36.74-5.97,2.77-7.36,5.65-.65,1.33-.77,1.82-.83,3.69-.25,5.92,2.25,8.42,10.65,10.54,1.98.52,3.85,1.1,4.17,1.33.38.29.59.68.63,1.26.14,1.58-1.17,2.39-3.85,2.39-2.32,0-3.85-.77-4.71-2.36-.32-.63-.72-1.26-.86-1.42-.32-.36-.68-.32-4.48.59-3.02.7-3.4,1.01-2.95,2.45,1.22,3.81,4.39,6.62,8.58,7.61,1.85.43,6.35.43,8.38,0,7.99-1.69,11.55-10.97,6.33-16.57-1.82-1.91-3.78-2.79-8.83-3.92-4.1-.92-4.64-1.26-4.5-2.75.09-1.26,1.06-1.71,3.4-1.58,2.05.09,2.61.43,3.65,2.03.38.59.86,1.1,1.08,1.19.38.11,4.84-1.24,6.08-1.87.7-.36.79-.99.27-2.23-1.04-2.5-3.56-4.68-6.48-5.63-2.36-.74-6.01-.92-8.35-.41h0Z"/>
  <path d="m592.31,2.43c-.9.36-.9.32-.9,15.63,0,12.99.05,14.82.36,15.27.34.47.47.5,4.01.5,3.15,0,3.74-.05,3.99-.38.25-.27.34-1.6.43-5.45l.11-5.09,4.17-.14c3.51-.11,4.37-.23,5.43-.63,3.58-1.37,5.63-4.1,6.28-8.31.77-4.89-2.23-9.66-6.87-10.99-1.13-.32-2.63-.41-9.01-.45-4.21-.05-7.81-.02-7.99.05h0Zm13.62,7.39c2.12.9,2.23,4.19.16,5.38-.95.56-5.25.83-5.79.38-.27-.23-.34-.83-.34-3.04,0-1.51.07-2.81.16-2.88.29-.32,5.02-.16,5.81.16h0Z"/>
  <path d="m673.2,1.36c-.45.45-.45.74-.45,15.4,0,13.31.05,15,.36,15.31.29.29.99.36,4.01.36,2.54,0,3.74-.09,3.92-.27.2-.2.27-1.73.27-5.49,0-2.88.07-5.38.14-5.58.11-.29.5-.36,1.78-.36,1.04,0,1.71.11,1.87.27.14.16,1.15,2.68,2.3,5.58,1.13,2.9,2.16,5.4,2.3,5.56.36.45,8.35.41,8.74-.05.38-.47.27-.81-2.41-7.23l-2.39-5.72,1.69-1.55c2.41-2.23,2.99-3.56,2.99-6.78,0-2.66-.32-3.81-1.64-5.81-1.44-2.18-3.69-3.47-6.89-3.87-.88-.11-4.86-.23-8.85-.23-6.98,0-7.3.02-7.72.45h0Zm14.46,6.76c1.6.45,2.34,2.3,1.55,3.9-.72,1.46-1.44,1.78-4.53,1.91-3.4.14-3.38.16-3.38-2.9s-.07-3.13,2.99-3.13c1.4,0,2.9.11,3.36.23h0Z"/>
  <path d="m753.4,1.27c-.47.32-.5.5-.5,3.45,0,2.63.07,3.17.38,3.42.25.23,1.26.34,3.54.38,2.09.05,3.22.18,3.33.34.09.16.18,5.36.18,11.57,0,9.95.05,11.33.36,11.64.5.5,7.54.54,7.95.05.18-.23.27-3.29.25-11.06,0-5.92.07-11.15.14-11.62l.14-.86,3.22-.07c2.3-.05,3.31-.16,3.56-.38.32-.25.38-.79.38-3.42,0-2.95-.02-3.13-.5-3.45-.45-.32-1.89-.36-11.21-.36s-10.76.05-11.21.36h0Z"/>
  <path d="m791.63,1.36c-.47.47-.47.52-.41,11.78.07,10.81.11,11.37.56,12.7,1.22,3.65,3.81,5.88,7.75,6.71,2.14.45,6.73.45,8.83-.02,3.29-.72,6.01-2.59,7.09-4.84,1.08-2.23,1.17-3.38,1.17-15.11V1.6l-.5-.34c-.38-.27-1.13-.36-3.24-.36-2.36,0-2.81.07-3.26.43l-.54.43-.11,10.9c-.11,9.93-.16,10.92-.52,11.46-.61.92-2.03,1.44-3.87,1.44-1.78-.02-2.77-.43-3.58-1.53-.45-.63-.47-.9-.59-11.53-.09-8.51-.18-10.97-.41-11.19-.2-.2-1.35-.32-4.1-.36-3.63-.07-3.83-.05-4.28.41h0Z"/>
  <path d="m830.97.41c-.59.56-1.15-1.55,5.97,22.27,2.57,8.6,2.43,8.17,2.84,8.56.5.5,7.99.5,8.49,0,.36-.36.5-.77,3.24-9.91,6.6-21.75,6.26-20.47,5.56-20.99-.56-.41-5.94-.43-6.48-.02-.36.27-1.24,2.99-4.01,12.68-1.31,4.55-1.58,5.29-1.78,5.29-.38,0-.27.32-3.72-12.05-.83-2.97-1.67-5.58-1.85-5.81-.32-.34-.83-.38-4.14-.38-3.13,0-3.83.07-4.12.36h0Z"/>
  <path d="m870.13.5c-.27.29-.34.61-.25,1.06,1.4,5.85,7.45,29.14,7.7,29.5.32.5.45.52,3.87.52,2.57,0,3.67-.09,3.96-.29s.88-2.32,2.16-7.59c1.89-7.79,1.98-8.11,2.25-8.11s.47.68,2.36,8.33c.95,3.78,1.87,7.05,2.07,7.25.32.36.81.41,3.87.41,1.94,0,3.65-.09,3.81-.2.45-.29.61-.83,4.44-16.08,4.28-17,4.3-15.24-.11-15.24-1.98,0-2.97.09-3.24.29s-.68,1.44-1.28,4.01c-.47,2.03-1.28,5.47-1.8,7.63-.95,3.99-1.19,4.64-1.53,4.08-.11-.16-.92-3.24-1.82-6.85-2.09-8.38-2.18-8.67-2.7-8.94-.23-.11-1.85-.23-3.58-.23-3.69,0-3.83.07-4.3,2.05-1.06,4.62-3.45,13.87-3.6,14.03-.34.34-.61-.59-2.25-7.88-.86-3.87-1.64-7.18-1.71-7.39-.27-.68-.95-.81-4.44-.81-3.15,0-3.49.05-3.87.45h0Z"/>
  <path d="m924.17.34c-.27.23-.36.5-.29.88.07.32,1.8,3.49,3.9,7.05l3.78,6.46-.38.77c-.2.45-2.14,3.85-4.32,7.57-2.16,3.72-4.01,7.05-4.08,7.39-.09.5,0,.7.34.88.68.36,6.82.34,7.32-.05.2-.14,1.08-1.58,1.98-3.2,2.72-4.98,3.36-5.97,3.65-5.83.16.05,1.4,2.07,2.72,4.5,1.35,2.41,2.61,4.48,2.84,4.59.23.14,2.23.23,4.44.23,4.23,0,4.57-.07,4.57-1.01,0-.27-1.91-3.81-4.28-7.88-2.34-4.1-4.28-7.66-4.28-7.9,0-.27,1.62-3.24,3.63-6.62,1.98-3.38,3.69-6.37,3.81-6.64.14-.36.09-.65-.14-.99-.32-.45-.54-.47-3.69-.47s-3.4.05-3.78.45c-.23.25-1.1,1.71-1.98,3.26-1.8,3.26-2.43,4.17-2.75,3.83-.14-.14-1.01-1.69-1.96-3.49s-1.94-3.45-2.18-3.67c-.41-.34-.97-.38-4.44-.38-2.99,0-4.1.07-4.41.29h0Z"/>
  <path d="m962.51.3c-.23.11-.41.45-.41.72s2.05,4.26,4.57,8.83l4.55,8.33.11,6.48c.09,5.43.16,6.51.45,6.69.18.11,1.94.23,3.87.23,3.4,0,3.54-.02,3.87-.5.32-.43.36-1.44.36-6.57v-6.06l1.1-2.05c.61-1.13,2.61-4.86,4.5-8.31,1.87-3.45,3.45-6.48,3.54-6.78.07-.34-.02-.65-.25-.9-.32-.29-.9-.36-3.47-.36-2.23,0-3.2.09-3.51.29-.23.18-1.44,2.34-2.68,4.8-1.44,2.81-2.41,4.48-2.61,4.48s-1.17-1.67-2.61-4.48c-1.24-2.45-2.45-4.62-2.68-4.8-.52-.36-8.11-.41-8.71-.05h0Z"/>
  <path d="m1002.5.37c-.38.29-.43.61-.43,3.24,0,2.14.09,2.99.32,3.26.27.34.97.38,5.99.38,3.15,0,5.85.07,6.06.14.7.27,1.37-.7-8.58,11.93-5.29,6.71-4.8,5.79-4.8,8.87,0,2.27.07,2.68.41,2.99.38.34,1.58.38,12.45.38,10.04,0,12.11-.05,12.5-.32.38-.29.43-.61.43-3.26,0-2.45-.07-2.99-.38-3.31-.34-.34-1.1-.38-6.91-.41-4.39-.02-6.62-.11-6.78-.27-.18-.18,1.6-2.57,6.42-8.65,3.67-4.64,6.78-8.6,6.89-8.85.32-.59.52-3.47.34-4.75-.29-1.82.54-1.71-12.16-1.71-9.41,0-11.37.05-11.75.32h0Z"/>
</svg>