<?xml version="1.0" encoding="UTF-8"?>
<svg id="Layer_1" data-name="Layer 1" xmlns="http://www.w3.org/2000/svg" viewBox="0 0 121.08 144.9">
  <defs>
    <style>
      .cls-1 {
        fill: #010101;
      }
    </style>
  </defs>
  <path class="cls-1" d="m52.19.5c-14.4,3.1-22.3,7.1-31.5,16.4C4.99,32.6-2.21,56.1.59,82.3c2.2,21.3,7.3,33.1,19.5,45.1,12.5,12.5,24.8,17.5,43.2,17.5,10.6,0,22-2.6,29.7-6.7,8-4.3,16.9-13.3,21-21,6.2-12,8.6-24.5,5.2-27.3-2.2-1.8-29.7-3.7-32.8-2.3-1.7.8-2.8,2.7-3.9,6.9-2.2,8-5.4,12.5-10.8,15.1-10.9,5.6-22.6-.2-26.5-12.9-1-3-1.9-10.7-2.2-17.8-1.3-28.6,4.9-43.4,18.6-44.8,6.2-.6,10.1.9,14,5.4,2.7,3,3.4,5,5.7,17.1.9,4.7,3.6,5.3,19.4,4.2,8-.5,15.5-1.1,16.8-1.4,3.6-.9,4.4-4.5,2.8-12.8C114.29,15.8,94.59-.3,63.19,0c-4.9.1-9.9.3-11,.5Z"/>
</svg>