<?xml version="1.0" encoding="UTF-8"?>
<svg id="Layer_1" data-name="Layer 1" xmlns="http://www.w3.org/2000/svg" viewBox="0 0 115.76 140.95">
  <defs>
    <style>
      .cls-1 {
        fill: #010101;
      }
    </style>
  </defs>
  <path class="cls-1" d="m2.88,1.3L.38,2.6.08,69.9c-.2,62.7-.1,67.6,1.5,69.3,1.7,1.9,3.2,1.9,31.8,1.6,24.5-.4,31.1-.8,36-2.2,17.5-5,31-16.5,38.9-32.8,6.3-13.2,7.9-21.6,7.4-39.1-.4-12.2-.8-15.3-3.2-22.2-3.4-9.9-9.3-19.2-17.2-27C80.78,3.1,68.68,0,26.88,0,11.58,0,4.68.4,2.88,1.3Zm55.1,33.2c20.5,7.3,25.5,49,8,66.5-5.5,5.5-10.7,7.2-20.6,6.8l-7-.3-.3-36c-.1-19.8,0-36.6.3-37.2.7-1.9,14.2-1.7,19.6.2Z"/>
</svg>