<?xml version="1.0" encoding="UTF-8"?>
<svg id="Layer_1" data-name="Layer 1" xmlns="http://www.w3.org/2000/svg" viewBox="0 0 102 140.18">
  <defs>
    <style>
      .cls-1 {
        fill: #010101;
      }
    </style>
  </defs>
  <path class="cls-1" d="m1.4,1.7C.2,3,0,15,0,70.2c0,65.1.1,67,1.9,68.4,2.9,2.1,95.3,2.1,98.2,0,1.7-1.3,1.9-2.7,1.9-15,0-11.6-.2-13.8-1.8-15.3-1.6-1.6-4.7-1.8-31.5-2.3l-29.7-.5v-20l23.3-.5c21.7-.5,23.5-.6,24.8-2.4,2-2.8,2-25.4,0-28.2-1.3-1.8-3-1.9-24.2-2.2-16.3-.2-23.1-.7-23.6-1.5-1.3-2-.9-16.2.4-17.5.9-.9,8.9-1.2,29.8-1.2,23.1,0,29-.3,30.6-1.4,1.7-1.3,1.9-2.7,1.9-14.4,0-9.5-.4-13.3-1.4-14.5-1.2-1.5-5.9-1.7-49.6-1.7S2.6.2,1.4,1.7Z"/>
</svg>