<?xml version="1.0" encoding="UTF-8"?>
<svg id="Layer_1" data-name="Layer 1" xmlns="http://www.w3.org/2000/svg" viewBox="0 0 101.5 140.1">
  <defs>
    <style>
      .cls-1 {
        fill: #010101;
      }
    </style>
  </defs>
  <path class="cls-1" d="m1.4,1.7C.2,3,0,15,0,70.2c0,65.1.1,67,1.9,68.4,2.8,2,32.4,2,35.2,0,1.8-1.3,1.9-3.2,2.4-25.8l.5-24.3,22.8-.5c21.2-.5,23-.6,24.3-2.4,1-1.5,1.4-5.2,1.4-14.1,0-10.5-.2-12.4-1.8-13.8-1.6-1.5-4.7-1.7-22.9-1.7-11.6,0-21.8-.3-22.7-.6-2.4-.9-2.4-20.9,0-21.8.9-.3,14.1-.6,29.3-.6,25.7,0,27.9-.1,29.4-1.8,1.4-1.5,1.7-4.2,1.7-14.9,0-11.3-.2-13.2-1.8-14.6-1.7-1.5-6.6-1.7-49.4-1.7S2.6.2,1.4,1.7Z"/>
</svg>