<?xml version="1.0" encoding="UTF-8"?>
<svg id="Layer_1" data-name="Layer 1" xmlns="http://www.w3.org/2000/svg" viewBox="0 0 116.03 143.72">
  <defs>
    <style>
      .cls-1 {
        fill: #010101;
      }
    </style>
  </defs>
  <path class="cls-1" d="m43,1.51C27.5,6.11,15.7,16.41,8.2,31.71.9,46.41,0,51.11,0,72.71s1,26.3,7.7,40c7.5,15.5,20.8,26.2,36.6,29.6,13.4,2.8,24.6,1.5,36.2-4.3,4.1-2.1,7.9-3.8,8.4-3.8.4,0,1.3,1.6,2,3.5l1.1,3.5,10,.3c15.3.4,14,4.1,14-38.7,0-32.4-.2-36.2-1.7-37.7-1.4-1.4-4.7-1.7-22-2.1-23.5-.5-34.2.2-36.3,2.4-2,1.9-2.2,25-.2,27.6.9,1.3,3.6,1.9,11.7,2.5,9.7.6,10.5.9,10.8,2.9.4,2.7-5.2,9.1-9.5,10.9-10.8,4.5-22.6-1.5-27.5-14.1-5.2-13.1-4-40.4,2.3-52.6,6.6-13,24.8-14.3,31.6-2.2,1.2,2.1,2.7,5.9,3.3,8.5,1.9,7.4,2.1,7.5,18.4,5.4,7.7-.9,15.1-2.4,16.4-3.2,2.8-1.9,2.9-6,.1-14.5-2.9-8.8-7.7-16.5-14.6-23.1C88.4,3.61,80.2.61,62,.11c-10.4-.3-14.2,0-19,1.4Z"/>
</svg>