<?xml version="1.0" encoding="UTF-8"?>
<svg id="Layer_1" data-name="Layer 1" xmlns="http://www.w3.org/2000/svg" viewBox="0 0 110 140.87">
  <defs>
    <style>
      .cls-1 {
        fill: #010101;
      }
    </style>
  </defs>
  <path class="cls-1" d="m5.3.63C-.1,1.63,0,.03,0,70.73v65.3l2.5,2.5c2.5,2.5,2.7,2.5,17.5,2.2,10.5-.2,15.3-.7,16.2-1.6,1-1,1.4-7.8,1.8-27l.5-25.7,16.6-.3c16.6-.2,16.7-.2,17.3,2,.3,1.3.6,12.9.6,25.9,0,20.8.2,23.8,1.7,25,1.2,1.1,5.4,1.4,16.8,1.4s15.6-.3,16.8-1.4c1.6-1.2,1.7-7.3,1.7-68.6s-.1-67.4-1.7-68.6c-2.3-2-31.3-2-33.6,0-1.5,1.2-1.7,4.1-1.7,24,0,16.7-.3,23.2-1.3,24.4-1.1,1.6-3,1.7-17.2,1.5l-16-.3-.5-24.5c-.3-13.5-.7-24.6-.8-24.7C35.3.33,12.6-.77,5.3.63Z"/>
</svg>