<?xml version="1.0" encoding="UTF-8"?>
<svg id="Layer_1" data-name="Layer 1" xmlns="http://www.w3.org/2000/svg" viewBox="0 0 69.88 142.13">
  <defs>
    <style>
      .cls-1 {
        fill: #010101;
      }
    </style>
  </defs>
  <path class="cls-1" d="m36.5.43c-4.6,1.2-4.5,0-4.5,50.7,0,43.8-.2,48.4-1.8,51.6-2.7,5.4-5.1,6.2-16.9,5.5q-13.3-.7-13.3,15.8c0,6.5.5,12.7,1,13.7,1.6,2.9,8.3,4.3,22,4.4,13.5.1,20.5-1.2,28.1-5,6.5-3.2,13.2-11.1,16-18.7,2.3-6.1,2.3-6.7,2.7-60.2.2-46.2.1-54.3-1.2-56-1.3-1.8-2.7-2-15.8-2.2-7.9-.1-15.2.1-16.3.4Z"/>
</svg>