<?xml version="1.0" encoding="UTF-8"?>
<svg id="Layer_1" data-name="Layer 1" xmlns="http://www.w3.org/2000/svg" viewBox="0 0 116.51 140.42">
  <defs>
    <style>
      .cls-1 {
        fill: #010101;
      }
    </style>
  </defs>
  <path class="cls-1" d="m4.5.62C-.1,1.72,0,.72,0,70.42,0,125.92.2,136.82,1.4,138.52c1.3,1.7,2.8,1.9,17.5,1.9,11.8,0,16.3-.3,17.3-1.3.9-.9,1.5-6,1.8-17l.5-15.7,5.8-8.2c6.6-9.4,7.4-10.1,9.2-8.2.7.8,5.9,11.5,11.6,23.9,5.6,12.4,11.1,23.4,12.1,24.5,1.7,1.9,3.1,2,19.4,2s17.7-.1,19-1.9c.8-1.2,1.1-2.9.8-4-.4-1.2-8.9-19.8-19-41.5-10.1-21.6-18.4-40.1-18.4-41s6.6-11.3,14.6-23.1C113,.12,113.1.22,90.3.02c-6.7-.1-13.3.3-14.7.9-1.7.6-7.5,8.5-18.6,25-8.8,13.2-16.7,24-17.5,24-1.3,0-1.5-3.4-1.5-21.8,0-11.9-.3-22.7-.6-23.9-.4-1.2-1.9-2.6-3.6-3.2C30.8-.08,8.5-.28,4.5.62Z"/>
</svg>