<?xml version="1.0" encoding="UTF-8"?>
<svg id="Layer_1" data-name="Layer 1" xmlns="http://www.w3.org/2000/svg" viewBox="0 0 90.99 140.62">
  <defs>
    <style>
      .cls-1 {
        fill: #010101;
      }
    </style>
  </defs>
  <path class="cls-1" d="m4.5.43C-.2,1.63,0-.77,0,70.23,0,131.53.1,137.63,1.7,138.83c2.3,2,82.6,2.5,86.3.6,2.5-1.2,2.5-1.5,2.8-15.2.4-18.9,2.6-17.5-27.8-17.5-20.8,0-23.9-.2-24.4-1.6-.3-.9-.6-24.2-.6-51.9,0-45.5-.2-50.4-1.7-51.6C35.1.63,30.9.23,20.6.03,12.8-.07,5.6.13,4.5.43Z"/>
</svg>