<?xml version="1.0" encoding="UTF-8"?>
<svg id="Layer_1" data-name="Layer 1" xmlns="http://www.w3.org/2000/svg" viewBox="0 0 152.18 140.88">
  <defs>
    <style>
      .cls-1 {
        fill: #010101;
      }
    </style>
  </defs>
  <path class="cls-1" d="m4.5.63C-.1,1.73,0,.73,0,70.43,0,125.93.2,136.83,1.4,138.53c1.3,1.7,2.7,1.9,15.1,1.9s13.8-.2,15.1-1.9c1.1-1.6,1.4-8.6,1.5-38,0-19.9.4-37,.9-38.1.7-1.8.9-1.8,2,1,.6,1.6,4,12.4,7.5,24,13.3,43.6,15.3,49.8,16.9,51.4,2.1,2,17.2,2.8,22.7,1.2,4.3-1.3,3.1,1.5,13.9-33.6,10.1-32.8,14.3-45.5,15-45.5,1.6,0,2,7.9,2,41.5,0,31.6.2,35.4,1.7,36.6,1.2,1.1,5.5,1.4,17.5,1.4,14.6,0,16.1-.2,17.4-1.9,2.1-2.9,2.1-133.3,0-136.2-1.3-1.8-3-1.9-22.8-2.2-24.9-.4-29.3,0-31,3.1-.6,1.2-5.3,15.6-10.4,32-5,16.4-9.6,30.3-10.2,30.9-1.6,1.6-2.4-.5-11.6-32.1-4.8-16.1-9.1-30.1-9.6-31.1-.5-.9-2.4-2-4.1-2.4C47.3-.17,7.6-.07,4.5.63Z"/>
</svg>