<?xml version="1.0" encoding="UTF-8"?>
<svg id="Layer_1" data-name="Layer 1" xmlns="http://www.w3.org/2000/svg" viewBox="0 0 109.98 140.6">
  <defs>
    <style>
      .cls-1 {
        fill: #010101;
      }
    </style>
  </defs>
  <path class="cls-1" d="m4.81.47C-.19,2.07-.19,1.47.11,71.47l.2,65.4,2.5,2c2.2,1.8,3.6,1.9,14.2,1.6,7.9-.2,12.1-.7,13-1.6,1-1,1.4-9.3,1.6-36.5.1-19.3.7-35.6,1.1-36,1.2-1.2,2.9,1.5,20.3,31.8,21.1,36.8,23,39.8,25.8,41.3,1.8.9,6.3,1.2,15.3,1,11.4-.3,13-.5,14.3-2.2,2.1-2.9,2.1-133.3,0-136.2-1.3-1.7-2.7-1.9-14-1.9-8.9,0-12.9.4-13.8,1.3-1,1-1.4,8.5-1.8,31-.4,24.7-.7,29.7-1.9,29.7q-1.6,0-21.6-34.7C47.11,13.37,39.81,1.47,38.91,1.07,36.71.07,7.91-.43,4.81.47Z"/>
</svg>