<?xml version="1.0" encoding="UTF-8"?>
<svg id="Layer_1" data-name="Layer 1" xmlns="http://www.w3.org/2000/svg" viewBox="0 0 119.81 143.79">
  <defs>
    <style>
      .cls-1 {
        fill: #010101;
      }
    </style>
  </defs>
  <path class="cls-1" d="m46.2,1.07C25.3,5.87,9.8,21.87,2.9,45.67.1,55.17-.9,76.37.9,87.27c4.6,28.8,21.4,49.7,44.5,55.4,6.4,1.5,22.6,1.5,29-.1,7.5-1.8,16.4-6.1,22.1-10.7,10.2-8,19.8-26.7,22.4-43.4,1.8-11.1.8-32.2-2-41.8-3-10.5-10.4-24.2-16.6-30.9-5.6-6.1-11.7-9.9-21.1-13.2C71.6-.13,54.9-.83,46.2,1.07Zm23.5,34.3c3.1,2.3,6.7,8.1,8.2,13.3,3.6,12.5,3.1,38.4-1.1,49.5-3.7,9.8-12.1,14.9-20.8,12.5-11.4-3-16.4-15-16.4-39,.1-20.3,3.9-32,12.2-36.9,4.6-2.8,13.7-2.5,17.9.6Z"/>
</svg>