<?xml version="1.0" encoding="UTF-8"?>
<svg id="Layer_1" data-name="Layer 1" xmlns="http://www.w3.org/2000/svg" viewBox="0 0 110.53 139.7">
  <defs>
    <style>
      .cls-1 {
        fill: #010101;
      }
    </style>
  </defs>
  <path class="cls-1" d="m4,.3C0,1.9,0,1.7,0,69.7c0,57.7.2,65.8,1.6,67.8,1.5,2.1,2.1,2.2,17.8,2.2,14,0,16.6-.2,17.7-1.7,1.1-1.2,1.5-7.1,1.9-24.2l.5-22.6,18.5-.6c15.6-.5,19.4-1,24.1-2.8,15.9-6.1,25-18.2,27.9-36.9,3.4-21.7-9.9-42.9-30.5-48.8C74.5.7,67.8.3,39.5.1,20.8-.1,4.8,0,4,.3Zm60.5,32.8c9.4,4,9.9,18.6.7,23.9-4.2,2.5-23.3,3.7-25.7,1.7-1.2-1-1.5-3.7-1.5-13.5,0-6.7.3-12.5.7-12.8,1.3-1.4,22.3-.7,25.8.7Z"/>
</svg>