<?xml version="1.0" encoding="UTF-8"?>
<svg id="Layer_1" data-name="Layer 1" xmlns="http://www.w3.org/2000/svg" viewBox="0 0 121.13 169.91">
  <defs>
    <style>
      .cls-1 {
        fill: #010101;
      }
    </style>
  </defs>
  <path class="cls-1" d="m44.89,2C26.69,6.8,13.89,19,5.89,39-3.51,62.8-1.51,94.8,10.79,115.8c4.8,8.1,15.2,18.3,22.4,22,8.4,4.2,13.4,5.4,24.9,6.1l9.9.6,1.7,5.1c5.2,15.3,16.4,21.6,35.6,20.1,11.1-.8,11.4-1.2,11.4-16.3,0-11.5-.1-12.4-2.2-13.8-1.7-1.2-3.7-1.4-8.8-1-5.6.5-6.9.3-9-1.4l-2.4-2,7.1-7.5c8.6-9.3,14.5-20.1,17.5-32.3,3-12.3,3-34.2-.1-45.9-3.1-12.1-10.1-25.4-17.3-33C88.39,2.4,65.59-3.4,44.89,2Zm26.1,34.3c6.7,5.1,10.6,18.4,10.6,36.2,0,19.7-4.6,33-12.9,37.2-8.1,4.2-17.7,1.8-22.4-5.4s-6.1-14.3-6.1-31.3c0-23.8,3.8-34.9,13.5-38.9,4.5-1.9,13.4-.8,17.3,2.2Z"/>
</svg>