<?xml version="1.0" encoding="UTF-8"?>
<svg id="Layer_1" data-name="Layer 1" xmlns="http://www.w3.org/2000/svg" viewBox="0 0 114.72 140.1">
  <defs>
    <style>
      .cls-1 {
        fill: #010101;
      }
    </style>
  </defs>
  <path class="cls-1" d="m2,2C0,4,0,5.3,0,70.4c0,59.1.2,66.6,1.6,68,1.3,1.3,4.4,1.6,17.8,1.6,11.3,0,16.6-.4,17.4-1.2.9-.9,1.2-7.7,1.2-24.4,0-12.8.3-23.9.6-24.8.5-1.3,2.2-1.6,7.9-1.6,4.6,0,7.6.5,8.3,1.2.6.7,5.1,11.9,10.2,24.8,5,12.9,9.6,24,10.2,24.7,1.6,2,37.1,1.8,38.8-.2,1.7-2.1,1.2-3.6-10.7-32.1l-10.6-25.4,7.5-6.9c10.7-9.9,13.3-15.8,13.3-30.1,0-11.8-1.4-16.9-7.3-25.8-6.4-9.7-16.4-15.4-30.6-17.2-3.9-.5-21.6-1-39.3-1C5.3,0,3.9.1,2,2Zm64.2,30c7.1,2,10.4,10.2,6.9,17.3-3.2,6.5-6.4,7.9-20.1,8.5-15.1.6-15,.7-15-12.9s-.3-13.9,13.3-13.9c6.2,0,12.9.5,14.9,1Z"/>
</svg>