<?xml version="1.0" encoding="UTF-8"?>
<svg id="Layer_1" data-name="Layer 1" xmlns="http://www.w3.org/2000/svg" viewBox="0 0 104 140.15">
  <defs>
    <style>
      .cls-1 {
        fill: #010101;
      }
    </style>
  </defs>
  <path class="cls-1" d="m2.2,1.6C.1,3,0,3.8,0,16.9c0,11.7.3,14.1,1.7,15.2,1.1,1,5.6,1.5,15.7,1.7,9.3.2,14.3.8,14.8,1.5.4.7.8,23.8.8,51.4,0,44.2.2,50.3,1.6,51.7,2.2,2.2,33.5,2.4,35.3.2.8-1,1.2-14.6,1.1-49.1,0-26.3.3-49.5.6-51.6l.6-3.8,14.3-.3c10.2-.2,14.7-.7,15.8-1.7,1.4-1.1,1.7-3.5,1.7-15.2,0-13.1-.1-13.9-2.2-15.3-2-1.4-8.4-1.6-49.8-1.6S4.2.2,2.2,1.6Z"/>
</svg>