<?xml version="1.0" encoding="UTF-8"?>
<svg id="Layer_1" data-name="Layer 1" xmlns="http://www.w3.org/2000/svg" viewBox="0 0 112.94 141.99">
  <defs>
    <style>
      .cls-1 {
        fill: #010101;
      }
    </style>
  </defs>
  <path class="cls-1" d="m1.94,2C-.16,4.1-.16,4.3.14,54.3c.3,48,.5,50.5,2.5,56.4,5.4,16.2,16.9,26.1,34.4,29.8,9.5,2,29.9,2,39.2-.1,14.6-3.2,26.7-11.5,31.5-21.5,4.8-9.9,5.2-15,5.2-67.1V3.1l-2.2-1.5c-1.7-1.2-5-1.6-14.4-1.6-10.5,0-12.5.3-14.5,1.9l-2.4,1.9-.5,48.4c-.5,44.1-.7,48.5-2.3,50.9-2.7,4.1-9,6.4-17.2,6.4-7.9-.1-12.3-1.9-15.9-6.8-2-2.8-2.1-4-2.6-51.2-.4-37.8-.8-48.7-1.8-49.7-.9-.9-6-1.4-18.2-1.6C4.84-.1,3.94,0,1.94,2Z"/>
</svg>