<?xml version="1.0" encoding="UTF-8"?>
<svg id="Layer_1" data-name="Layer 1" xmlns="http://www.w3.org/2000/svg" viewBox="0 0 118.9 140.25">
  <defs>
    <style>
      .cls-1 {
        fill: #010101;
      }
    </style>
  </defs>
  <path class="cls-1" d="m1.42,1.7C-1.18,4.2-3.68-5.2,27.92,100.6c11.4,38.2,10.8,36.3,12.6,38,2.2,2.2,35.5,2.2,37.7,0,1.6-1.6,2.2-3.4,14.4-44C121.92-2,120.42,3.7,117.32,1.4c-2.5-1.8-26.4-1.9-28.8-.1-1.6,1.2-5.5,13.3-17.8,56.3-5.8,20.2-7,23.5-7.9,23.5-1.7,0-1.2,1.4-16.5-53.5-3.7-13.2-7.4-24.8-8.2-25.8C36.72.3,34.42.1,19.72.1,5.82.1,2.72.4,1.42,1.7Z"/>
</svg>