<?xml version="1.0" encoding="UTF-8"?>
<svg id="Layer_1" data-name="Layer 1" xmlns="http://www.w3.org/2000/svg" viewBox="0 0 176.49 140.23">
  <defs>
    <style>
      .cls-1 {
        fill: #010101;
      }
    </style>
  </defs>
  <path class="cls-1" d="m1.27,2.23C.07,3.53-.23,4.93.17,6.93c6.2,26,33.1,129.4,34.2,131,1.4,2.2,2,2.3,17.2,2.3,11.4,0,16.3-.4,17.6-1.3s3.9-10.3,9.6-33.7c8.4-34.6,8.8-36,10-36s2.1,3,10.5,37c4.2,16.8,8.3,31.3,9.2,32.2,1.4,1.6,3.6,1.8,17.2,1.8,8.6,0,16.2-.4,16.9-.9,2-1.3,2.7-3.7,19.7-71.4C181.27-7.57,181.37.23,161.77.23c-8.8,0-13.2.4-14.4,1.3s-3,6.4-5.7,17.8c-2.1,9-5.7,24.3-8,33.9-4.2,17.7-5.3,20.6-6.8,18.1-.5-.7-4.1-14.4-8.1-30.4C109.47,3.73,109.07,2.43,106.77,1.23c-1-.5-8.2-1-15.9-1-16.4,0-17,.3-19.1,9.1-4.7,20.5-15.3,61.6-16,62.3-1.5,1.5-2.7-2.6-10-35-3.8-17.2-7.3-31.9-7.6-32.8C36.97.83,33.97.23,18.47.23,4.47.23,2.97.43,1.27,2.23Z"/>
</svg>