<?xml version="1.0" encoding="UTF-8"?>
<svg id="Layer_1" data-name="Layer 1" xmlns="http://www.w3.org/2000/svg" viewBox="0 0 123.85 140.04">
  <defs>
    <style>
      .cls-1 {
        fill: #010101;
      }
    </style>
  </defs>
  <path class="cls-1" d="m6.35,1.3c-1.2,1-1.6,2.2-1.3,3.9.3,1.4,8,15.5,17.3,31.3l16.8,28.7-1.7,3.4c-.9,2-9.5,17.1-19.2,33.6C8.65,118.7.45,133.5.15,135c-.4,2.2,0,3.1,1.5,3.9,3,1.6,30.3,1.5,32.5-.2.9-.6,4.8-7,8.8-14.2,12.1-22.1,14.9-26.5,16.2-25.9.7.2,6.2,9.2,12.1,20,6,10.7,11.6,19.9,12.6,20.4,1,.6,9.9,1,19.7,1,18.8,0,20.3-.3,20.3-4.5,0-1.2-8.5-16.9-19-35-10.4-18.2-19-34-19-35.1,0-1.2,7.2-14.4,16.1-29.4,8.8-15,16.4-28.3,16.9-29.5.6-1.6.4-2.9-.6-4.4-1.4-2-2.4-2.1-16.4-2.1s-15.1.2-16.8,2c-1,1.1-4.9,7.6-8.8,14.5-8,14.5-10.8,18.5-12.2,17-.6-.6-4.5-7.5-8.7-15.5S46.75,2.7,45.65,1.7c-1.8-1.5-4.3-1.7-19.7-1.7C12.65,0,7.75.3,6.35,1.3Z"/>
</svg>