<?xml version="1.0" encoding="UTF-8"?>
<svg id="Layer_1" data-name="Layer 1" xmlns="http://www.w3.org/2000/svg" viewBox="0 0 119.7 140">
  <defs>
    <style>
      .cls-1 {
        fill: #010101;
      }
    </style>
  </defs>
  <path class="cls-1" d="m1.8,1.1C.8,1.6,0,3.1,0,4.3s9.1,18.9,20.3,39.2l20.2,37,.5,28.8c.4,24.1.7,28.9,2,29.7.8.5,8.6,1,17.2,1,15.1,0,15.7-.1,17.2-2.2,1.4-1.9,1.6-6.4,1.6-29.2v-26.9l4.9-9.1c2.7-5,11.6-21.6,20-36.9,8.3-15.3,15.3-28.8,15.7-30.1.3-1.5-.1-2.9-1.1-4C117.1.3,114.5,0,103.1,0c-9.9,0-14.2.4-15.6,1.3-1,.8-6.4,10.4-11.9,21.3-6.4,12.5-10.7,19.9-11.6,19.9s-5.2-7.4-11.6-19.9c-5.5-10.9-10.9-20.5-11.9-21.3C38.2-.3,4.5-.5,1.8,1.1Z"/>
</svg>