<?xml version="1.0" encoding="UTF-8"?>
<svg id="Layer_1" data-name="Layer 1" xmlns="http://www.w3.org/2000/svg" viewBox="0 0 114.55 140.01">
  <defs>
    <style>
      .cls-1 {
        fill: #010101;
      }
    </style>
  </defs>
  <path class="cls-1" d="m6.45,1.41c-1.7,1.3-1.9,2.7-1.9,14.4,0,9.5.4,13.3,1.4,14.5,1.2,1.5,4.3,1.7,26.6,1.7,14,0,26,.3,26.9.6,3.1,1.2,6.1-3.1-38.1,53C-2.15,115.41.05,111.31.05,125.01c0,10.1.3,11.9,1.8,13.3,1.7,1.5,7,1.7,55.3,1.7,44.6,0,53.8-.2,55.5-1.4,1.7-1.3,1.9-2.7,1.9-14.5,0-10.9-.3-13.3-1.7-14.7-1.5-1.5-4.9-1.7-30.7-1.8-19.5-.1-29.4-.5-30.1-1.2-.8-.8,7.1-11.4,28.5-38.4,16.3-20.6,30.1-38.2,30.6-39.3,1.4-2.6,2.3-15.4,1.5-21.1C111.35-.49,115.05,0,58.65,0,16.85,0,8.15.21,6.45,1.41Z"/>
</svg>